<svg xmlns="http://www.w3.org/2000/svg" viewBox="0 0 449.42 388.46"><defs><style>.cls-1{fill:#419FD9;}</style></defs><g id="Слой_2" data-name="Слой 2"><g id="Слой_1-2" data-name="Слой 1"><g id="Слой_2-2" data-name="Слой 2"><g id="Слой_1-2-2" data-name="Слой 1-2"><path class="cls-1" d="M449.26,162.69c-.1-11-8.77-19.28-19.82-19.54-5.33-.12-10.67-.33-16,.06-4.32.32-5.29-1.29-5.07-5.3.32-5.8.18-11.64,0-17.45A40,40,0,0,0,373,82.27c-15.22-1.62-30.54-.36-45.83-.63-5.42-.09-10.83,0-16.93,0,3.49-6.27,6.66-11.85,9.69-17.51A7.66,7.66,0,0,1,325,60,30.59,30.59,0,1,0,295.19,8.8a30.12,30.12,0,0,0-7,33,7.62,7.62,0,0,1-.47,7.75c-5.54,9.43-10.87,19-16.06,28.63-1.35,2.51-2.82,3.5-5.76,3.48q-41.13-.18-82.28,0c-2.78,0-4.47-.64-5.88-3.28-5.33-9.93-10.88-19.75-16.55-29.49a6.34,6.34,0,0,1-.33-6.43,29.09,29.09,0,0,0,.44-22.79C156.26,6.25,142.87-1.51,128.34.4c-13.8,1.81-24.59,13.1-26.16,27.36-1.51,13.69,7.23,27.09,20.58,31.85,2,.73,4.59.42,6,3,3.22,6.13,6.71,12.13,10.34,18.63a9.6,9.6,0,0,1-1.09.25c-18.28,0-36.56,0-54.84.15-21.39.22-37.94,13.56-41.61,33.61-1.41,7.71-.63,15.6-.53,23.4,0,3.36-.66,4.74-4.33,4.52-5.3-.33-10.64-.14-16-.07C8.77,143.31.16,151.59.1,163.44q-.19,35.91,0,71.82c.06,11,8,19.21,18.89,20a114.61,114.61,0,0,0,15.94.11c4.66-.34,6.44.79,6.1,5.85a102.34,102.34,0,0,0,1.36,24.34c10.45,59.86,60.17,102.19,121.1,102.66q61.09.48,122.17,0c42.63-.43,76.58-18.33,101.23-53.07,15.15-21.34,22-45.49,21.63-71.68-.1-8,0-8,8.2-8,4.82,0,9.66.13,14.45-.28A19.46,19.46,0,0,0,449.26,236Q449.58,199.36,449.26,162.69Zm-311.1,62.13a35.79,35.79,0,1,1,35.53-36,2,2,0,0,1,0,.35C173.63,208.55,157.49,224.77,138.16,224.82Zm126.36,91.92q-39.84.09-79.69,0c-12.46,0-21.45-8.91-21.32-20.74.14-11.62,9-20,21.39-20.09,13.28-.05,26.56,0,39.84,0h39.84c12.31.06,21.22,8.54,21.31,20.16.1,11.85-8.9,20.63-21.38,20.67Zm47.08-91.92a35.79,35.79,0,0,1-1-71.58h1.19c19.38,0,35.48,16.12,35.56,35.6.08,19.68-16.21,36.07-35.74,36Z"/></g></g></g></g></svg>