<svg xmlns="http://www.w3.org/2000/svg" viewBox="0 0 511.49 511.51">
<defs><style>.cls-1{fill:#293a4c;}.cls-2{fill:#d0d0df;}</style></defs>
<g id="Слой_2" data-name="Слой 2"><g id="Слой_1-2" data-name="Слой 1">
<path class="cls-1" d="M0,270.37V240.44c.81-8.63.91-17.31,1.54-26,1.22-16.73,6.11-32.57,11.88-48.15C24.3,136.92,39.7,110,60.54,86.59c21.32-24,45.63-44.39,74.44-59.15,20.66-10.57,42-19,64.76-23.87,10.84-2.33,21.9-2.24,32.87-3.08,2.61-.2,5.28.6,7.83-.49h29.93c8.95.88,17.94,1.05,26.91,1.7,16.28,1.17,31.62,6,46.74,11.55,29.62,10.88,56.72,26.34,80.28,47.36,24.1,21.5,44.6,46,59.41,75,11.49,22.51,20.16,45.91,24.94,70.75,1.37,7.15,1.62,14.41,2,21.62,1.21,23.57,1.43,47.2-1.31,70.65-2.6,22.29-10,43.33-19.31,63.69C479.8,384.7,467,405.45,450.6,423.83c-20.23,22.74-43.06,42.46-70,57-24,13-49.15,22.71-76,27.76-7.39,1.39-14.88,1.67-22.33,2.05-23.16,1.19-46.38,1.35-69.43-1.24-22.13-2.48-43.06-9.77-63.3-18.93-22.85-10.34-44.08-23.39-62.79-40.13-23.7-21.2-44-45.17-58.79-73.62C17.09,355.84,8.46,334.15,3.59,311.05c-2.43-11.49-2.5-23.18-3.11-34.83C.38,274.27,1,272.24,0,270.37Z"/>
<path class="cls-2" d="M289,301c-8.24,10.16-16.92,18.56-28,24.1-15.51,7.79-31.91,10.56-48.87,6.7-24.13-5.5-40.41-26.89-41.68-52.12-2.53-50.48,34-98.63,88.95-110,23-4.77,45.6-3,68,3.21,8.44,2.35,11.93,8.47,10.21,17.11q-8.51,42.73-16.9,85.49a52.05,52.05,0,0,0-.48,17.87c.85,5.55,3.47,7.76,9,8,9.12.41,16.42-3.6,22.67-9.71,12-11.75,17.79-26.6,20.51-42.83,3.5-20.91,2.06-41.53-5.76-61.26-12.12-30.56-35.29-48.57-67.07-55-40.79-8.27-78.79-1.52-111.83,25-27.27,21.88-41.59,51.21-46.15,85.5-2.77,20.85-2,41.57,5.31,61.48,13.76,37.32,41.21,58.5,79.79,65.62,27,5,53.26,1.5,78.87-7.88,6.85-2.51,7.27-2.4,10.66,4.26,1.66,3.25,3.28,6.53,4.75,9.87,2.69,6.09,1.83,8.15-4.36,10.67a156.38,156.38,0,0,1-40.85,10.57c-24.94,2.95-49.68,2.68-74.08-4.51-57.12-16.82-94.08-65.68-94-125.24.08-53.18,19.7-97.47,61.77-130.74,26-20.56,56.23-30.79,89.16-33.44,26.6-2.14,52.5.65,76.92,11.91,40.48,18.68,63.75,50.44,69.46,94.61,3.45,26.63.31,52.51-13,76.29-13.7,24.44-34.22,39.27-62.58,42.29a53.48,53.48,0,0,1-16.37-.82c-11.39-2.34-19.05-8.92-22.23-20.32C290.38,305.72,289.83,303.81,289,301Z"/>
<path class="cls-1" d="M211.51,270.17c.53-39.42,33-71.08,71.35-69.54.66,0,1.33,0,2,.09,10.41.9,11.61,2.48,9.55,12.84-2.3,11.55-4.25,23.2-7.09,34.62C282.5,267.44,272,283,255.12,293.82c-7.08,4.53-14.9,6.62-23.3,5.12C218.36,296.54,211.3,286.39,211.51,270.17Z"/>
</g></g></svg>