<svg xmlns="http://www.w3.org/2000/svg" viewBox="0 0 339.63 404.62"><g id="Слой_2" data-name="Слой 2"><g id="Слой_1-2" data-name="Слой 1"><path d="M55.45,404.62c-.53-2.45-2.88-2.23-4.44-2.58C21.48,395.47,1.58,371.34.32,341.63c-1.53-35.83,2.15-71,18.8-103.55,13.71-26.76,35.28-42.26,66-43.84A27.8,27.8,0,0,1,101,198.1c11.89,6.84,22.75,15.37,35.8,20.34,29.48,11.24,57.09,7.2,83.53-8.9a71.61,71.61,0,0,0,8.65-5.62c17.22-14.23,35.55-11,53.77-3,25.88,11.34,38.66,33.64,46.74,59.06,9,28.35,11.71,57.58,9.29,87.16-2.27,27.72-25.44,51-54.81,56-1.42.24-3.29-.63-4,1.52Z"/><path d="M69.62,97.22C70.61,41.67,114.74-1,170,0c53.62,1,96.74,45.73,95.93,99.46A97.78,97.78,0,0,1,165.8,196.12C111.63,195.12,68.65,150.93,69.62,97.22Z"/></g></g></svg>